<mxfile host="Electron" agent="Mozilla/5.0 (Windows NT 10.0; Win64; x64) AppleWebKit/537.36 (KHTML, like Gecko) draw.io/28.0.6 Chrome/138.0.7204.100 Electron/37.2.3 Safari/537.36" version="28.0.6">
  <diagram name="Página-1" id="W3jtBz4B2AT_1gfqYrbx">
    <mxGraphModel dx="1090" dy="671" grid="1" gridSize="10" guides="1" tooltips="1" connect="1" arrows="1" fold="1" page="1" pageScale="1" pageWidth="827" pageHeight="1169" math="0" shadow="0">
      <root>
        <mxCell id="0" />
        <mxCell id="1" parent="0" />
        <mxCell id="kHhx-YUBXS6lUgogTmdM-33" style="edgeStyle=orthogonalEdgeStyle;rounded=0;orthogonalLoop=1;jettySize=auto;html=1;entryX=0;entryY=0.5;entryDx=0;entryDy=0;" edge="1" parent="1" source="kHhx-YUBXS6lUgogTmdM-1" target="kHhx-YUBXS6lUgogTmdM-2">
          <mxGeometry relative="1" as="geometry" />
        </mxCell>
        <mxCell id="kHhx-YUBXS6lUgogTmdM-1" value="" style="rounded=0;whiteSpace=wrap;html=1;" vertex="1" parent="1">
          <mxGeometry x="40" y="80" width="120" height="60" as="geometry" />
        </mxCell>
        <mxCell id="kHhx-YUBXS6lUgogTmdM-2" value="" style="rounded=0;whiteSpace=wrap;html=1;" vertex="1" parent="1">
          <mxGeometry x="200" y="80" width="120" height="60" as="geometry" />
        </mxCell>
        <mxCell id="kHhx-YUBXS6lUgogTmdM-62" style="edgeStyle=orthogonalEdgeStyle;rounded=0;orthogonalLoop=1;jettySize=auto;html=1;entryX=0.5;entryY=0;entryDx=0;entryDy=0;" edge="1" parent="1" source="kHhx-YUBXS6lUgogTmdM-3" target="kHhx-YUBXS6lUgogTmdM-48">
          <mxGeometry relative="1" as="geometry" />
        </mxCell>
        <mxCell id="kHhx-YUBXS6lUgogTmdM-3" value="" style="rhombus;whiteSpace=wrap;html=1;" vertex="1" parent="1">
          <mxGeometry x="390" y="130" width="80" height="80" as="geometry" />
        </mxCell>
        <mxCell id="kHhx-YUBXS6lUgogTmdM-30" value="" style="edgeStyle=orthogonalEdgeStyle;rounded=0;orthogonalLoop=1;jettySize=auto;html=1;entryX=0.5;entryY=0;entryDx=0;entryDy=0;" edge="1" parent="1" source="kHhx-YUBXS6lUgogTmdM-4" target="kHhx-YUBXS6lUgogTmdM-1">
          <mxGeometry relative="1" as="geometry">
            <mxPoint x="100" y="70" as="targetPoint" />
          </mxGeometry>
        </mxCell>
        <mxCell id="kHhx-YUBXS6lUgogTmdM-4" value="" style="ellipse;whiteSpace=wrap;html=1;aspect=fixed;fillColor=#60a917;fontColor=#ffffff;strokeColor=#2D7600;" vertex="1" parent="1">
          <mxGeometry x="85" y="20" width="30" height="30" as="geometry" />
        </mxCell>
        <mxCell id="kHhx-YUBXS6lUgogTmdM-7" value="" style="rounded=0;whiteSpace=wrap;html=1;" vertex="1" parent="1">
          <mxGeometry x="510" y="490" width="120" height="60" as="geometry" />
        </mxCell>
        <mxCell id="kHhx-YUBXS6lUgogTmdM-8" value="" style="rounded=0;whiteSpace=wrap;html=1;" vertex="1" parent="1">
          <mxGeometry x="260" y="590" width="120" height="60" as="geometry" />
        </mxCell>
        <mxCell id="kHhx-YUBXS6lUgogTmdM-86" style="edgeStyle=orthogonalEdgeStyle;rounded=0;orthogonalLoop=1;jettySize=auto;html=1;entryX=0;entryY=0.5;entryDx=0;entryDy=0;" edge="1" parent="1" source="kHhx-YUBXS6lUgogTmdM-11" target="kHhx-YUBXS6lUgogTmdM-16">
          <mxGeometry relative="1" as="geometry">
            <mxPoint x="180" y="799.9999999999998" as="targetPoint" />
            <Array as="points">
              <mxPoint x="135" y="780" />
              <mxPoint x="323" y="780" />
              <mxPoint x="323" y="815" />
            </Array>
          </mxGeometry>
        </mxCell>
        <mxCell id="kHhx-YUBXS6lUgogTmdM-11" value="" style="rounded=0;whiteSpace=wrap;html=1;" vertex="1" parent="1">
          <mxGeometry x="75" y="370" width="120" height="60" as="geometry" />
        </mxCell>
        <mxCell id="kHhx-YUBXS6lUgogTmdM-13" value="" style="rounded=0;whiteSpace=wrap;html=1;" vertex="1" parent="1">
          <mxGeometry x="680" y="400" width="120" height="60" as="geometry" />
        </mxCell>
        <mxCell id="kHhx-YUBXS6lUgogTmdM-16" value="" style="ellipse;whiteSpace=wrap;html=1;aspect=fixed;fillColor=#e51400;fontColor=#ffffff;strokeColor=#B20000;" vertex="1" parent="1">
          <mxGeometry x="450" y="800" width="30" height="30" as="geometry" />
        </mxCell>
        <UserObject label="Recebe idade" placeholders="1" name="Variable" id="kHhx-YUBXS6lUgogTmdM-17">
          <mxCell style="text;html=1;strokeColor=none;fillColor=none;align=center;verticalAlign=middle;whiteSpace=wrap;overflow=hidden;" vertex="1" parent="1">
            <mxGeometry x="60" y="100" width="80" height="20" as="geometry" />
          </mxCell>
        </UserObject>
        <mxCell id="kHhx-YUBXS6lUgogTmdM-61" style="edgeStyle=orthogonalEdgeStyle;rounded=0;orthogonalLoop=1;jettySize=auto;html=1;entryX=0.5;entryY=0;entryDx=0;entryDy=0;" edge="1" parent="1" source="kHhx-YUBXS6lUgogTmdM-18" target="kHhx-YUBXS6lUgogTmdM-3">
          <mxGeometry relative="1" as="geometry" />
        </mxCell>
        <UserObject label="Recebe sexo" placeholders="1" name="Variable" id="kHhx-YUBXS6lUgogTmdM-18">
          <mxCell style="text;html=1;strokeColor=none;fillColor=none;align=center;verticalAlign=middle;whiteSpace=wrap;overflow=hidden;" vertex="1" parent="1">
            <mxGeometry x="220" y="100" width="80" height="20" as="geometry" />
          </mxCell>
        </UserObject>
        <mxCell id="kHhx-YUBXS6lUgogTmdM-63" style="edgeStyle=orthogonalEdgeStyle;rounded=0;orthogonalLoop=1;jettySize=auto;html=1;entryX=0.5;entryY=0;entryDx=0;entryDy=0;" edge="1" parent="1" source="kHhx-YUBXS6lUgogTmdM-20" target="kHhx-YUBXS6lUgogTmdM-50">
          <mxGeometry relative="1" as="geometry" />
        </mxCell>
        <UserObject label="sexo = h" placeholders="1" name="Variable" id="kHhx-YUBXS6lUgogTmdM-20">
          <mxCell style="text;html=1;strokeColor=none;fillColor=none;align=center;verticalAlign=middle;whiteSpace=wrap;overflow=hidden;" vertex="1" parent="1">
            <mxGeometry x="394" y="160" width="76" height="20" as="geometry" />
          </mxCell>
        </UserObject>
        <mxCell id="kHhx-YUBXS6lUgogTmdM-80" style="edgeStyle=orthogonalEdgeStyle;rounded=0;orthogonalLoop=1;jettySize=auto;html=1;" edge="1" parent="1" source="kHhx-YUBXS6lUgogTmdM-25">
          <mxGeometry relative="1" as="geometry">
            <mxPoint x="450" y="809.9999999999998" as="targetPoint" />
            <Array as="points">
              <mxPoint x="320" y="730" />
              <mxPoint x="451" y="730" />
              <mxPoint x="451" y="810" />
            </Array>
          </mxGeometry>
        </mxCell>
        <UserObject label="&quot;você é homem e menino&quot;" placeholders="1" name="Variable" id="kHhx-YUBXS6lUgogTmdM-25">
          <mxCell style="text;html=1;strokeColor=none;fillColor=none;align=center;verticalAlign=middle;whiteSpace=wrap;overflow=hidden;" vertex="1" parent="1">
            <mxGeometry x="272" y="600" width="96" height="40" as="geometry" />
          </mxCell>
        </UserObject>
        <UserObject label="&quot;você é homem maior de idade&quot;" placeholders="1" name="Variable" id="kHhx-YUBXS6lUgogTmdM-27">
          <mxCell style="text;html=1;strokeColor=none;fillColor=none;align=center;verticalAlign=middle;whiteSpace=wrap;overflow=hidden;" vertex="1" parent="1">
            <mxGeometry x="90" y="380" width="96" height="40" as="geometry" />
          </mxCell>
        </UserObject>
        <UserObject label="&quot;você é mulher e menina&quot;" placeholders="1" name="Variable" id="kHhx-YUBXS6lUgogTmdM-28">
          <mxCell style="text;html=1;strokeColor=none;fillColor=none;align=center;verticalAlign=middle;whiteSpace=wrap;overflow=hidden;" vertex="1" parent="1">
            <mxGeometry x="522" y="500" width="96" height="40" as="geometry" />
          </mxCell>
        </UserObject>
        <mxCell id="kHhx-YUBXS6lUgogTmdM-79" style="edgeStyle=orthogonalEdgeStyle;rounded=0;orthogonalLoop=1;jettySize=auto;html=1;entryX=1;entryY=0;entryDx=0;entryDy=0;" edge="1" parent="1" source="kHhx-YUBXS6lUgogTmdM-29" target="kHhx-YUBXS6lUgogTmdM-16">
          <mxGeometry relative="1" as="geometry">
            <Array as="points">
              <mxPoint x="740" y="760" />
              <mxPoint x="476" y="760" />
            </Array>
          </mxGeometry>
        </mxCell>
        <UserObject label="&quot;você é mulher maior de idade&quot;" placeholders="1" name="Variable" id="kHhx-YUBXS6lUgogTmdM-29">
          <mxCell style="text;html=1;strokeColor=none;fillColor=none;align=center;verticalAlign=middle;whiteSpace=wrap;overflow=hidden;" vertex="1" parent="1">
            <mxGeometry x="692" y="410" width="96" height="40" as="geometry" />
          </mxCell>
        </UserObject>
        <mxCell id="kHhx-YUBXS6lUgogTmdM-45" style="edgeStyle=orthogonalEdgeStyle;rounded=0;orthogonalLoop=1;jettySize=auto;html=1;entryX=0;entryY=0.667;entryDx=0;entryDy=0;entryPerimeter=0;" edge="1" parent="1" source="kHhx-YUBXS6lUgogTmdM-28" target="kHhx-YUBXS6lUgogTmdM-16">
          <mxGeometry relative="1" as="geometry">
            <Array as="points">
              <mxPoint x="570" y="600" />
            </Array>
          </mxGeometry>
        </mxCell>
        <mxCell id="kHhx-YUBXS6lUgogTmdM-65" style="edgeStyle=orthogonalEdgeStyle;rounded=0;orthogonalLoop=1;jettySize=auto;html=1;entryX=0.5;entryY=0;entryDx=0;entryDy=0;" edge="1" parent="1" source="kHhx-YUBXS6lUgogTmdM-48" target="kHhx-YUBXS6lUgogTmdM-8">
          <mxGeometry relative="1" as="geometry" />
        </mxCell>
        <mxCell id="kHhx-YUBXS6lUgogTmdM-48" value="" style="rhombus;whiteSpace=wrap;html=1;" vertex="1" parent="1">
          <mxGeometry x="280" y="250" width="80" height="80" as="geometry" />
        </mxCell>
        <mxCell id="kHhx-YUBXS6lUgogTmdM-67" style="edgeStyle=orthogonalEdgeStyle;rounded=0;orthogonalLoop=1;jettySize=auto;html=1;entryX=0.25;entryY=0;entryDx=0;entryDy=0;" edge="1" parent="1" source="kHhx-YUBXS6lUgogTmdM-50" target="kHhx-YUBXS6lUgogTmdM-7">
          <mxGeometry relative="1" as="geometry" />
        </mxCell>
        <mxCell id="kHhx-YUBXS6lUgogTmdM-50" value="" style="rhombus;whiteSpace=wrap;html=1;" vertex="1" parent="1">
          <mxGeometry x="500" y="250" width="80" height="80" as="geometry" />
        </mxCell>
        <UserObject label="idade &amp;gt;= 18" placeholders="1" name="Variable" id="kHhx-YUBXS6lUgogTmdM-54">
          <mxCell style="text;html=1;strokeColor=none;fillColor=none;align=center;verticalAlign=middle;whiteSpace=wrap;overflow=hidden;" vertex="1" parent="1">
            <mxGeometry x="282" y="280" width="76" height="20" as="geometry" />
          </mxCell>
        </UserObject>
        <UserObject label="&lt;span style=&quot;color: rgba(0, 0, 0, 0); font-family: monospace; font-size: 0px; text-align: start; text-wrap-mode: nowrap;&quot;&gt;%3CmxGraphModel%3E%3Croot%3E%3CmxCell%20id%3D%220%22%2F%3E%3CmxCell%20id%3D%221%22%20parent%3D%220%22%2F%3E%3CUserObject%20label%3D%22idade%20%26amp%3Bgt%3B%3D%2018%22%20placeholders%3D%221%22%20name%3D%22Variable%22%20id%3D%222%22%3E%3CmxCell%20style%3D%22text%3Bhtml%3D1%3BstrokeColor%3Dnone%3BfillColor%3Dnone%3Balign%3Dcenter%3BverticalAlign%3Dmiddle%3BwhiteSpace%3Dwrap%3Boverflow%3Dhidden%3B%22%20vertex%3D%221%22%20parent%3D%221%22%3E%3CmxGeometry%20x%3D%22282%22%20y%3D%22280%22%20width%3D%2276%22%20height%3D%2220%22%20as%3D%22geometry%22%2F%3E%3C%2FmxCell%3E%3C%2FUserObject%3E%3C%2Froot%3E%3C%2FmxGraphModel%3E&lt;/span&gt;" placeholders="1" name="Variable" id="kHhx-YUBXS6lUgogTmdM-55">
          <mxCell style="text;html=1;strokeColor=none;fillColor=none;align=center;verticalAlign=middle;whiteSpace=wrap;overflow=hidden;" vertex="1" parent="1">
            <mxGeometry x="500" y="280" width="76" height="20" as="geometry" />
          </mxCell>
        </UserObject>
        <mxCell id="kHhx-YUBXS6lUgogTmdM-60" style="edgeStyle=orthogonalEdgeStyle;rounded=0;orthogonalLoop=1;jettySize=auto;html=1;exitX=0.5;exitY=1;exitDx=0;exitDy=0;" edge="1" parent="1" source="kHhx-YUBXS6lUgogTmdM-55" target="kHhx-YUBXS6lUgogTmdM-55">
          <mxGeometry relative="1" as="geometry" />
        </mxCell>
        <mxCell id="kHhx-YUBXS6lUgogTmdM-64" style="edgeStyle=orthogonalEdgeStyle;rounded=0;orthogonalLoop=1;jettySize=auto;html=1;entryX=0.365;entryY=0.013;entryDx=0;entryDy=0;entryPerimeter=0;" edge="1" parent="1" source="kHhx-YUBXS6lUgogTmdM-54" target="kHhx-YUBXS6lUgogTmdM-11">
          <mxGeometry relative="1" as="geometry" />
        </mxCell>
        <mxCell id="kHhx-YUBXS6lUgogTmdM-66" style="edgeStyle=orthogonalEdgeStyle;rounded=0;orthogonalLoop=1;jettySize=auto;html=1;entryX=0.666;entryY=-0.043;entryDx=0;entryDy=0;entryPerimeter=0;" edge="1" parent="1" source="kHhx-YUBXS6lUgogTmdM-55" target="kHhx-YUBXS6lUgogTmdM-13">
          <mxGeometry relative="1" as="geometry" />
        </mxCell>
        <UserObject label="sim" placeholders="1" name="Variable" id="kHhx-YUBXS6lUgogTmdM-68">
          <mxCell style="text;html=1;strokeColor=none;fillColor=none;align=center;verticalAlign=middle;whiteSpace=wrap;overflow=hidden;" vertex="1" parent="1">
            <mxGeometry x="206" y="270" width="76" height="20" as="geometry" />
          </mxCell>
        </UserObject>
        <UserObject label="sim" placeholders="1" name="Variable" id="kHhx-YUBXS6lUgogTmdM-69">
          <mxCell style="text;html=1;strokeColor=none;fillColor=none;align=center;verticalAlign=middle;whiteSpace=wrap;overflow=hidden;" vertex="1" parent="1">
            <mxGeometry x="576" y="270" width="76" height="20" as="geometry" />
          </mxCell>
        </UserObject>
        <UserObject label="não" placeholders="1" name="Variable" id="kHhx-YUBXS6lUgogTmdM-70">
          <mxCell style="text;html=1;strokeColor=none;fillColor=none;align=center;verticalAlign=middle;whiteSpace=wrap;overflow=hidden;" vertex="1" parent="1">
            <mxGeometry x="110" y="760" width="76" height="20" as="geometry" />
          </mxCell>
        </UserObject>
        <UserObject label="não" placeholders="1" name="Variable" id="kHhx-YUBXS6lUgogTmdM-71">
          <mxCell style="text;html=1;strokeColor=none;fillColor=none;align=center;verticalAlign=middle;whiteSpace=wrap;overflow=hidden;" vertex="1" parent="1">
            <mxGeometry x="480" y="330" width="76" height="20" as="geometry" />
          </mxCell>
        </UserObject>
        <UserObject label="idade &amp;gt;= 18" placeholders="1" name="Variable" id="kHhx-YUBXS6lUgogTmdM-74">
          <mxCell style="text;html=1;strokeColor=none;fillColor=none;align=center;verticalAlign=middle;whiteSpace=wrap;overflow=hidden;" vertex="1" parent="1">
            <mxGeometry x="504" y="280" width="76" height="20" as="geometry" />
          </mxCell>
        </UserObject>
      </root>
    </mxGraphModel>
  </diagram>
</mxfile>
